#!OML:ASF F:\VICON\USERDATA\INSTALL\rory3\rory3.ASF
:FULLY-SPECIFIED
:DEGREES
206
root -0.0185 18.1589 -27.6523 5.49165 0.0506 2.28337
lowerback 14.5229 -2.95069 -4.4265
upperback 0.0247654 -4.65742 0.0255982
thorax -7.7643 -2.0851 3.48592
lowerneck -4.85478 3.32131 0.046698
upperneck -8.54073 4.28616 -2.36142
head -1.78867 2.17149 -0.747253
rclavicle 1.10325e-014 -5.1684e-015
rhumerus -63.7862 2.57158 -77.6743
rradius 81.6511
rwrist -4.92655
rhand -38.4119 33.1525
rfingers 7.12502
rthumb -11.4365 3.48445
lclavicle 1.10325e-014 -5.1684e-015
lhumerus -14.3442 -17.3303 86.7379
lradius 118.351
lwrist 27.2763
lhand -37.5696 3.44615
lfingers 7.12502
lthumb -10.6241 33.1576
rfemur -46.9058 3.87842 18.3401
rtibia 63.2384
rfoot -1.57055 -1.46641
rtoes -9.18713
lfemur 23.87 -1.99333 -28.5951
ltibia 7.70376
lfoot 30.3316 4.69193
ltoes -16.096
207
root -0.0185 18.236 -27.3554 5.78735 0.0506 2.3477
lowerback 14.0344 -3.04559 -4.3669
upperback -0.108907 -4.7433 0.166812
thorax -7.61869 -2.13088 3.59007
lowerneck -5.54341 3.50825 -0.0264718
upperneck -7.97383 4.54372 -2.48319
head -1.48672 2.29605 -0.74714
rclavicle -4.23163e-014 -2.78299e-015
rhumerus -64.184 2.68377 -77.4481
rradius 82.2658
rwrist -5.06709
rhand -37.4709 33.608
rfingers 7.12502
rthumb -10.5289 3.89166
lclavicle -4.23163e-014 -2.78299e-015
lhumerus -14.7951 -17.4718 86.9856
lradius 118.672
lwrist 26.6691
lhand -37.4486 3.77776
lfingers 7.12502
lthumb -10.5074 33.4951
rfemur -46.3262 4.52702 18.032
rtibia 57.8397
rfoot -1.25187 -1.19197
rtoes -10.3088
lfemur 26.7508 -2.58116 -28.8649
ltibia 3.46005
lfoot 34.9268 5.52315
ltoes -16.1303
208
root -0.0185 18.3061 -27.0584 6.10474 0.0506 2.30591
lowerback 13.6772 -3.07476 -4.13569
upperback -0.160344 -4.72314 0.253741
thorax -7.48521 -2.13315 3.52569
lowerneck -6.48116 3.64361 0.020563
upperneck -7.47303 4.72979 -2.58206
head -1.16805 2.37899 -0.754104
rclavicle 1.0635e-014 -1.58034e-014
rhumerus -64.2108 2.48221 -77.3269
rradius 82.8041
rwrist -4.96516
rhand -36.9893 33.7807
rfingers 7.12502
rthumb -10.0643 4.0414
lclavicle 1.0635e-014 -1.58034e-014
lhumerus -15.4528 -17.9194 87.3233
lradius 119.132
lwrist 26.6041
lhand -37.115 4.08555
lfingers 7.12502
lthumb -10.1856 33.819
rfemur -45.5754 5.23675 17.7831
rtibia 52.4224
rfoot -0.495985 -1.04618
rtoes -10.8442
lfemur 29.2536 -3.11528 -29.0705
ltibia 2.54444e-014
lfoot 38.1697 5.38707
ltoes -16.5235
209
root -0.0185 18.363 -26.7614 6.3654 0.0506 2.43639
lowerback 13.482 -3.15536 -3.95466
upperback -0.306982 -4.79709 0.260159
thorax -7.54089 -2.17231 3.43752
lowerneck -6.70382 3.66784 0.294386
upperneck -7.45368 4.73636 -2.83737
head -1.11332 2.37537 -0.872248
rclavicle -4.34344e-014 1.2921e-014
rhumerus -64.3184 2.16921 -77.2554
rradius 83.3539
rwrist -4.86277
rhand -36.6431 33.8295
rfingers 7.12502
rthumb -9.73031 4.07423
lclavicle -4.34344e-014 1.2921e-014
lhumerus -16.3945 -18.4423 87.7643
lradius 119.43
lwrist 26.0356
lhand -37.2609 3.23815
lfingers 7.12502
lthumb -10.3264 32.9646
rfemur -44.6462 5.62548 17.3884
rtibia 47.0662
rfoot 0.321006 -1.48548
rtoes -11.2707
lfemur 29.3636 -3.87059 -29.7321
ltibia 1.44727
lfoot 38.1306 4.30824
ltoes -17.1951
210
root -0.0185 18.3913 -26.4644 6.44202 0.0506 2.84224
lowerback 13.3899 -3.19723 -4.11948
upperback -0.453569 -4.88373 0.207623
thorax -7.63116 -2.20403 3.48963
lowerneck -6.26824 3.64951 0.404812
upperneck -7.99396 4.68698 -2.97442
head -1.35009 2.35557 -0.953224
rclavicle -5.17461e-014 -2.45499e-014
rhumerus -64.5087 1.90623 -77.2206
rradius 83.9304
rwrist -4.70725
rhand -36.0259 34.1283
rfingers 7.12502
rthumb -9.13484 4.34618
lclavicle -5.17461e-014 -2.45499e-014
lhumerus -17.1887 -18.9384 88.1615
lradius 119.399
lwrist 25.1386
lhand -37.4106 2.33571
lfingers 7.12502
lthumb -10.4708 32.0549
rfemur -43.6451 6.03906 16.7802
rtibia 41.8387
rfoot 0.999742 -2.44211
rtoes -12.3755
lfemur 27.565 -4.49275 -30.9184
ltibia 7.09195
lfoot 35.6113 3.49831
ltoes -18.4045
211
root -0.0185 18.404 -26.1674 6.46108 0.0506 3.19834
lowerback 13.2115 -3.1909 -4.32301
upperback -0.465076 -4.90165 0.180644
thorax -7.52702 -2.20932 3.56475
lowerneck -6.3029 3.67843 0.26466
upperneck -8.2272 4.73081 -2.88521
head -1.42283 2.38125 -0.905615
rclavicle 2.09221e-014 5.81445e-015
rhumerus -64.3174 1.68378 -77.2268
rradius 84.367
rwrist -4.47224
rhand -35.7397 34.1178
rfingers 7.12502
rthumb -8.85865 4.32375
lclavicle 2.09221e-014 5.81445e-015
lhumerus -17.7002 -19.5298 88.4349
lradius 119.285
lwrist 24.3965
lhand -37.6958 3.37466
lfingers 7.12502
lthumb -10.7459 33.0798
rfemur -42.5028 6.6107 16.2458
rtibia 36.9463
rfoot 1.81321 -3.54682
rtoes -12.8921
lfemur 26.3679 -5.00199 -31.9813
ltibia 11.6777
lfoot 33.5867 3.03183
ltoes -18.0838
212
root -0.0185 18.4176 -25.8705 6.43164 0.0506 3.52407
lowerback 13.0264 -3.13845 -4.49409
upperback -0.282186 -4.84976 0.0910468
thorax -7.22429 -2.19342 3.53344
lowerneck -6.79329 3.6368 0.319994
upperneck -8.28489 4.67252 -2.84546
head -1.36076 2.34662 -0.892741
rclavicle 7.88057e-014 2.71341e-014
rhumerus -63.6925 1.13466 -77.3302
rradius 84.737
rwrist -4.17993
rhand -35.6642 34.324
rfingers 7.12502
rthumb -8.78574 4.52684
lclavicle 7.88057e-014 2.71341e-014
lhumerus -18.042 -20.2429 88.6168
lradius 119.12
lwrist 23.9354
lhand -37.574 4.40538
lfingers 7.12502
lthumb -10.6283 34.1166
rfemur -41.1715 7.0608 15.8408
rtibia 32.5606
rfoot 1.3765 -4.73269
rtoes -13.8297
lfemur 25.1616 -5.5961 -32.9128
ltibia 16.3161
lfoot 31.7879 3.36686
ltoes -14.5003
213
root -0.0184 18.4225 -25.5735 6.38675 0.0506 3.83994
lowerback 12.6988 -3.06689 -4.56031
upperback 0.0561511 -4.74718 -0.0648383
thorax -6.6943 -2.1685 3.34858
lowerneck -7.31381 3.58374 0.523068
upperneck -8.58806 4.576 -2.96684
head -1.36578 2.29151 -0.958938
rclavicle -8.43965e-014 -3.23025e-015
rhumerus -62.8163 0.462474 -77.6096
rradius 85.2295
rwrist -3.97978
rhand -35.9002 34.267
rfingers 7.12502
rthumb -9.01351 4.47955
lclavicle -8.43965e-014 -3.23025e-015
lhumerus -18.2806 -20.7978 88.7368
lradius 118.744
lwrist 24.0735
lhand -37.0618 4.08024
lfingers 7.12502
lthumb -10.1342 33.8162
rfemur -39.9065 7.22229 15.6368
rtibia 28.8974
rfoot 1.0439 -5.5999
rtoes -14.8334
lfemur 23.8579 -6.22328 -33.7565
ltibia 21.1595
lfoot 30.5705 4.06353
ltoes -14.3967
214
root -0.0184 18.4155 -25.2765 6.0926 0.0506 4.1054
lowerback 12.7303 -3.03085 -4.59766
upperback 0.375341 -4.70324 -0.187841
thorax -6.38249 -2.16336 3.22063
lowerneck -7.38848 3.58848 0.427345
upperneck -9.24595 4.57563 -2.90474
head -1.5668 2.29651 -0.934465
rclavicle 2.64446e-014 3.72721e-015
rhumerus -61.913 0.124315 -77.9843
rradius 85.6329
rwrist -3.99486
rhand -35.9526 34.2129
rfingers 7.12502
rthumb -9.0641 4.42763
lclavicle 2.64446e-014 3.72721e-015
lhumerus -19.0056 -21.0233 89.0343
lradius 118.264
lwrist 24.0925
lhand -37.1878 2.48127
lfingers 7.12502
lthumb -10.2558 32.2112
rfemur -38.5266 7.10043 15.7438
rtibia 26.1329
rfoot 1.28601 -6.33711
rtoes -15.9344
lfemur 22.5981 -5.29845 -33.8165
ltibia 26.1961
lfoot 30.2726 3.66924
ltoes -17.7045
